# xmcd
#
# Track frame offsets:
#	150
#	12788
#	29129
#	50503
#	69777
#	87557
#	110026
#	133087
#	152455
#	176651
#	192498
#	208887
#	222163
#	235346
#	263028
#	282978
#	304222
#
# Disc length: 4315 seconds
# Revision: 0
# Processed by: cddbd v1.5.2PL0 Copyright (c) Steve Scherf et al.
# Submitted via: dBpowerAMP V12.0
#
DISCID=0010d911
DTITLE=Douglas Adams - Per Anhalter durch die Galaxis - vollständige Lesung CD 03
DYEAR=2009
DGENRE=Speech
TTITLE0=Per Anhalter durch die Galaxis
TTITLE1=Per Anhalter durch die Galaxis
TTITLE2=Per Anhalter durch die Galaxis
TTITLE3=Per Anhalter durch die Galaxis
TTITLE4=Per Anhalter durch die Galaxis
TTITLE5=Per Anhalter durch die Galaxis
TTITLE6=Per Anhalter durch die Galaxis
TTITLE7=Per Anhalter durch die Galaxis
TTITLE8=Per Anhalter durch die Galaxis
TTITLE9=Per Anhalter durch die Galaxis
TTITLE10=Per Anhalter durch die Galaxis
TTITLE11=Per Anhalter durch die Galaxis
TTITLE12=Per Anhalter durch die Galaxis
TTITLE13=Per Anhalter durch die Galaxis
TTITLE14=Per Anhalter durch die Galaxis
TTITLE15=Per Anhalter durch die Galaxis
TTITLE16=Per Anhalter durch die Galaxis
EXTD=
EXTT0=
EXTT1=
EXTT2=
EXTT3=
EXTT4=
EXTT5=
EXTT6=
EXTT7=
EXTT8=
EXTT9=
EXTT10=
EXTT11=
EXTT12=
EXTT13=
EXTT14=
EXTT15=
EXTT16=
PLAYORDER=
